<svg xmlns="http://www.w3.org/2000/svg" viewBox="0 0 250.92 40.49"><defs><style>.cls-1{fill:#29abe2;}.cls-2{fill:#0071bc;}</style></defs><g id="Camada_2" data-name="Camada 2"><g id="text"><path class="cls-1" d="M12.75,38.87c-6.58,1.2-9.64-1.69-9.64-7.33V25.32c0-1.69-.31-3.73-3.11-3.73v-4c2.8,0,3.11-2.05,3.11-3.73V7.6C3.11,2,6.17-.93,12.75.27V4.49c-2.89-.76-4,.26-4,3.37v6c0,2.66.23,4.79-3.1,5.77,3.33.93,3.1,3.11,3.1,5.73v5.95c0,3.11.67,3.73,4,3.38Z"/><path class="cls-1" d="M46.73,19c-.09,8-5,16.08-15.95,16.08s-16-7.86-16-16S20,2.62,30.78,2.62,46.81,10.84,46.73,19Zm-26.17.13c.14,5.11,2.89,10.57,10.22,10.57S40.86,24.17,41,19.06,38.11,8,30.78,8,20.43,13.86,20.56,19.1Z"/><path class="cls-1" d="M50.63,40.49V12.44h5.06l.36,3A8.71,8.71,0,0,1,63.15,12c6.76,0,11.24,5,11.24,11.46s-4,11.46-11.06,11.46c-2.31,0-5.73-.71-7.28-3.11v8.73ZM69,23.41a6.22,6.22,0,1,0-12.43,0,6.22,6.22,0,1,0,12.43,0Z"/><path class="cls-1" d="M83,25.32C83.36,28,85.71,30,89.54,30c2,0,4.61-.76,5.86-2l3.46,3.42c-2.31,2.4-6.08,3.55-9.41,3.55-7.56,0-12-4.66-12-11.68,0-6.66,4.53-11.46,11.64-11.46,7.32,0,11.9,4.53,11.06,13.55Zm11.9-4.49c-.36-2.84-2.58-4.26-5.69-4.26-2.93,0-5.33,1.42-6.13,4.26Z"/><path class="cls-1" d="M119.61,33.53v-11c0-3.21-1.73-5.65-5-5.65s-5.32,2.69-5.32,5.9V33.53h-5.12V12.38h4.61l.34,2.87a9.34,9.34,0,0,1,6.85-3.17c4.9,0,8.83,3.73,8.83,10.36V33.53Z"/><path class="cls-2" d="M158.29,30.43a16.41,16.41,0,0,1-11.82,4.62C134.92,35.05,130,27.1,130,19s5.24-16.39,16.48-16.39a16,16,0,0,1,11.42,4.76L154,11.15a10.69,10.69,0,0,0-7.51-2.93c-7.51,0-10.75,5.6-10.7,10.79s3,10.53,10.7,10.53a11.46,11.46,0,0,0,7.82-3.15Z"/><path class="cls-2" d="M182.49,23.41c0,6.31-4.31,11.42-11.42,11.42S159.7,29.72,159.7,23.41,164.05,12,171,12A11.08,11.08,0,0,1,182.49,23.41Zm-17.37,0c0,3.33,2,6.44,5.95,6.44s6-3.11,6-6.44-2.31-6.48-6-6.48C167.16,16.93,165.12,20.12,165.12,23.41Z"/><path class="cls-2" d="M209,3.29V34.34h-5.07l-.35-3a8,8,0,0,1-7.07,3.51c-6.44,0-11.28-4.27-11.28-11.46,0-7.55,4.76-11.46,11.15-11.46,2.31,0,5.91,1.24,7.2,3.51V3.29ZM190.61,23.37a6.29,6.29,0,1,0,12.57,0,6.25,6.25,0,0,0-6.35-6.4A6,6,0,0,0,190.61,23.37Z"/><path class="cls-2" d="M218.77,25.32C219.12,28,221.48,30,225.3,30c2,0,4.62-.76,5.86-2l3.47,3.42c-2.31,2.4-6.09,3.55-9.42,3.55-7.55,0-12-4.66-12-11.68,0-6.66,4.53-11.46,11.64-11.46,7.33,0,11.9,4.53,11.06,13.55Zm11.9-4.49c-.35-2.84-2.57-4.26-5.68-4.26-2.93,0-5.33,1.42-6.13,4.26Z"/><path class="cls-2" d="M238.17,34.65c3.29.35,4-.27,4-3.38V25.32c0-2.62-.22-4.8,3.11-5.73-3.33-1-3.11-3.11-3.11-5.77v-6c0-3.11-1.07-4.13-4-3.37V.27c6.58-1.2,9.64,1.69,9.64,7.33v6.22c0,1.68.31,3.73,3.11,3.73v4c-2.8,0-3.11,2-3.11,3.73v6.22c0,5.64-3.06,8.53-9.64,7.33Z"/></g></g></svg>